<?xml version="1.0" standalone="no"?>
<!DOCTYPE svg PUBLIC "-//W3C//DTD SVG 20010904//EN"
 "http://www.w3.org/TR/2001/REC-SVG-20010904/DTD/svg10.dtd">
<svg version="1.0" xmlns="http://www.w3.org/2000/svg"
 width="256.000000pt" height="256.000000pt" viewBox="0 0 256.000000 256.000000"
 preserveAspectRatio="xMidYMid meet">
<metadata>
Created by potrace 1.11, written by Peter Selinger 2001-2013
</metadata>
<g transform="translate(0.000000,256.000000) scale(0.100000,-0.100000)"
fill="#000000" stroke="none">
<path d="M330 2199 l0 -229 538 -1 c295 0 548 -2 562 -4 125 -15 225 -76 270
-165 22 -43 40 -147 33 -195 -8 -55 -33 -135 -43 -135 -6 0 -10 -6 -10 -13 0
-43 -194 -154 -230 -132 -6 3 -10 2 -10 -3 0 -5 -237 -9 -542 -9 -299 -1 -549
-2 -555 -2 -10 -1 -13 -126 -13 -590 l0 -588 252 1 253 1 0 365 0 365 198 1
198 1 218 -326 c120 -179 230 -344 245 -366 l27 -40 295 -1 c162 0 294 1 294
4 0 7 -44 67 -52 70 -4 2 -8 9 -8 16 0 7 -8 21 -17 32 -27 30 -83 114 -83 123
0 5 -4 11 -8 13 -7 3 -171 237 -212 303 -8 13 -48 71 -88 129 -80 116 -90 136
-72 136 16 0 104 43 108 53 2 4 9 7 14 7 27 0 146 105 222 194 23 28 85 143
90 168 2 7 8 31 14 53 6 22 14 60 17 85 4 24 9 48 11 52 3 5 0 8 -7 8 -7 0 -8
4 -2 13 8 9 11 182 3 182 -1 0 -3 17 -6 39 -5 55 -36 160 -48 168 -6 4 -7 8
-3 8 5 0 -6 26 -23 58 -107 191 -258 294 -525 358 -56 14 -157 16 -707 19
l-598 3 0 -229z"/>
</g>
</svg>
