<?xml version="1.0" encoding="utf-8"?>
<!-- Generator: Adobe Illustrator 19.0.0, SVG Export Plug-In . SVG Version: 6.00 Build 0)  -->
<svg version="1.1" id="Capa_1" xmlns="http://www.w3.org/2000/svg" xmlns:xlink="http://www.w3.org/1999/xlink" x="0px" y="0px"
	 viewBox="-276 368 58 58" style="enable-background:new -276 368 58 58;" xml:space="preserve" shape-rendering="geometricPrecision">
<style type="text/css">
	.st0{fill:#FFFFFF;}
</style>
<g>
	<path class="st0" d="M-225.1,380.2l-0.8-0.8l-10.1-10.1l-0.8-0.8c-0.3-0.3-0.8-0.5-1.3-0.5h-29c-1.2,0-2.5,0.9-2.5,2.9V407v16.5
		v0.5c0,0.8,0.8,1.7,1.8,1.9c0,0,0.1,0,0.1,0c0.2,0,0.3,0,0.5,0h40.1c0.2,0,0.3,0,0.5,0c0.1,0,0.1,0,0.2,0c1-0.3,1.8-1.1,1.8-1.9
		v-0.5V407v-25C-224.5,381.2-224.6,380.6-225.1,380.2z M-228.1,380h-8.4v-8.4L-228.1,380z M-267,424c-0.1,0-0.1,0-0.2,0
		c-0.2-0.1-0.3-0.2-0.3-0.4V409h41v14.5c0,0.2-0.1,0.3-0.3,0.4c-0.1,0-0.1,0-0.2,0H-267z M-267.5,407v-36.1c0-0.2,0-0.9,0.5-0.9
		h28.6c0,0.1-0.1,0.3-0.1,0.4V382h11.6c0.1,0,0.3,0,0.4-0.1c0,0,0,0,0,0v25H-267.5z"/>
	<path class="st0" d="M-254,412.7c-0.3-0.3-0.7-0.5-1.1-0.6c-0.4-0.1-0.8-0.2-1.3-0.2h-2.9V422h1.6v-3.6h1.2c0.5,0,1-0.1,1.4-0.2
		s0.8-0.4,1.1-0.7c0.3-0.3,0.6-0.6,0.7-1c0.2-0.4,0.3-0.9,0.3-1.4c0-0.5-0.1-0.9-0.3-1.3C-253.4,413.3-253.6,413-254,412.7z
		 M-254.6,416.1c-0.1,0.3-0.2,0.5-0.4,0.6c-0.2,0.2-0.3,0.3-0.5,0.3s-0.4,0.1-0.6,0.1h-1.5v-4h1.2c0.4,0,0.8,0.1,1,0.2
		c0.3,0.1,0.5,0.3,0.6,0.5c0.1,0.2,0.2,0.4,0.3,0.6c0,0.2,0.1,0.4,0.1,0.6C-254.4,415.5-254.5,415.8-254.6,416.1z"/>
	<path class="st0" d="M-244,413.4c-0.4-0.4-1-0.8-1.6-1.1c-0.6-0.3-1.4-0.4-2.2-0.4h-3V422h3.8c0.1,0,0.3,0,0.6,0
		c0.3,0,0.6-0.1,0.9-0.2c0.3-0.1,0.6-0.3,1-0.5c0.3-0.2,0.6-0.5,0.9-0.9s0.5-0.9,0.7-1.5c0.2-0.6,0.3-1.3,0.3-2.1
		c0-0.6-0.1-1.2-0.3-1.8C-243.3,414.4-243.6,413.8-244,413.4z M-245.2,419.7c-0.5,0.7-1.3,1.1-2.4,1.1h-1.6v-7.6h1
		c0.8,0,1.4,0.1,1.9,0.3c0.5,0.2,0.9,0.5,1.2,0.8c0.3,0.3,0.5,0.7,0.6,1.1c0.1,0.4,0.2,0.8,0.2,1.2
		C-244.5,418-244.8,419-245.2,419.7z"/>
	<polygon class="st0" points="-240.4,422 -238.7,422 -238.7,417.5 -234.5,417.5 -234.5,416.3 -238.7,416.3 -238.7,413.2 
		-234.1,413.2 -234.1,411.9 -240.4,411.9 	"/>
	<path class="st0" d="M-237.6,391c-0.9,0-2,0.1-3.4,0.4c-1.8-1.9-3.7-4.8-5.1-7.6c1.3-5.6,0.7-6.4,0.4-6.8c-0.3-0.4-0.8-1-1.3-1
		c-0.2,0-0.8,0.1-1,0.2c-0.6,0.2-0.9,0.6-1.1,1.2c-0.7,1.7,0.3,4.5,1.3,6.6c-0.9,3.4-2.3,7.5-3.8,10.8c-3.8,1.7-5.8,3.4-6,5.1
		c-0.1,0.6,0.1,1.5,1.1,2.2c0.3,0.2,0.6,0.3,1,0.3l0,0c0.9,0,1.8-0.7,2.8-2.1c0.7-1,1.5-2.5,2.4-4.3c2.7-1.2,6-2.2,8.8-2.8
		c1.6,1.5,3,2.3,4.2,2.3c0.9,0,1.7-0.4,2.2-1.2c0.6-0.8,0.7-1.5,0.4-2.2C-235.1,391.3-236,391-237.6,391z M-255.5,400.6
		c-0.5-0.4-0.4-0.6-0.4-0.7c0.1-0.6,0.9-1.5,3.1-2.7C-254.4,400.2-255.3,400.6-255.5,400.6z M-247.3,377.7c0,0,1,1.1,0.1,3.2
		C-248.6,379.5-247.4,377.7-247.3,377.7z M-249.3,393.7c1-2.4,2-5.1,2.7-7.6c1.1,2,2.5,4,3.8,5.5
		C-245,392.2-247.2,392.9-249.3,393.7z M-236.4,393.3c-0.3,0.4-1,0.4-1.2,0.4c-0.5,0-0.7-0.3-1.5-0.9c0.7-0.1,1.3-0.1,1.8-0.1
		c0.9,0,1.1,0.1,1.2,0.2C-236.2,392.9-236.3,393-236.4,393.3z"/>
</g>
</svg>
